<svg width="832" height="527" version="1.1" xmlns="http://www.w3.org/2000/svg" desc="Created with imagetracer.js version 1.2.6" ><path fill="rgb(159,159,159)" stroke="rgb(159,159,159)" stroke-width="1" opacity="0.8588235294117647" d="M 270.5 0 L 287.5 0 L 317.5 15 L 514.5 15 L 544.5 0 L 561.5 0 L 562.5 1 L 579.5 2 L 593.5 5 L 614.5 12 L 658.5 33 L 670 43.5 L 678 61.5 L 685.5 70 L 697 80.5 L 709 100.5 L 730 150.5 L 746 193.5 L 763 248.5 L 774 293.5 L 781 332.5 L 782 345.5 L 783 346.5 L 785 373.5 L 786 374.5 L 786 389.5 L 787 390.5 L 787 419.5 L 786 420.5 L 786 432.5 L 785 433.5 L 784 445.5 L 777 470.5 Q 767.9 493.4 750.5 508 Q 739.2 517.2 723.5 522 L 708.5 525 L 691.5 525 Q 671.1 515.4 658 498.5 L 624 456.5 L 587 406 L 567.5 392 L 549.5 385 L 537.5 384 L 536.5 383 L 486.5 383 Q 485 380.5 479.5 382 L 478.5 383 L 352.5 383 Q 351.3 380.8 346.5 382 L 345.5 383 L 295.5 383 L 294.5 384 L 281.5 385 Q 254.9 392.4 240 411.5 L 187 482.5 L 155.5 516 L 140.5 525 L 122.5 525 L 107.5 522 L 91.5 515 Q 79.4 508.6 71 498.5 L 57 476.5 L 48 448.5 L 47 437.5 L 46 436.5 L 46 427.5 L 45 426.5 L 45 380.5 L 46 379.5 L 46 367.5 L 47 366.5 L 48 349.5 L 49 348.5 L 50 335.5 L 57 300.5 L 57 295.5 L 76 222.5 L 96 164.5 L 122 101.5 Q 129.9 83.4 143.5 71 L 153 62.5 L 160 45.5 L 168.5 36 L 190.5 24 L 224.5 9 L 251.5 2 L 269.5 1 L 270.5 0 Z M 269 8 L 268 9 L 252 10 L 229 16 L 197 30 L 176 41 L 166 52 Q 164 63 158 70 L 148 79 Q 145 78 146 81 L 144 81 L 135 95 L 115 139 L 98 183 L 82 231 L 64 302 L 64 307 L 59 330 L 57 350 L 56 351 L 54 379 L 53 380 L 53 428 L 54 429 L 56 448 L 64 472 L 76 492 Q 87 505 105 512 L 118 516 L 134 517 L 135 518 Q 147 515 155 506 L 187 470 L 237 403 Q 248 391 264 383 L 282 377 L 295 376 L 296 375 L 536 375 L 561 380 Q 576 385 587 395 L 598 407 Q 628 450 661 490 L 682 510 Q 687 516 697 518 L 698 517 L 715 516 L 725 513 Q 738 508 748 500 Q 761 488 768 471 L 776 445 L 776 439 L 778 432 L 778 422 L 779 421 L 779 391 L 778 390 L 778 375 L 777 374 L 777 365 L 776 364 L 774 340 L 767 305 L 767 300 L 754 247 L 738 196 L 722 153 L 705 112 Q 698 96 689 84 L 679 74 Q 676 75 677 72 L 675 72 L 670 65 L 666 53 L 662 47 L 655 40 L 606 17 L 585 11 L 574 10 L 573 9 L 565 9 L 564 8 L 546 8 L 518 22 L 314 22 L 286 8 L 269 8 Z " /><path fill="rgb(159,159,159)" stroke="rgb(159,159,159)" stroke-width="1" opacity="0.8588235294117647" d="M 411.5 47 L 425.5 48 Q 434.5 51.5 440 58.5 Q 447.2 66.3 445 83.5 Q 441.6 95.1 432.5 101 Q 425.2 107.2 409.5 105 Q 398.6 102.4 393 94.5 Q 385.8 87.2 387 71.5 L 389 64.5 L 395 55 L 404.5 49 L 411.5 47 Z M 412 53 L 403 57 Q 395 62 393 72 Q 392 83 396 89 Q 402 98 415 100 Q 425 100 431 95 Q 438 90 440 79 Q 440 69 436 64 Q 432 57 425 54 Q 420 52 412 53 Z " /><path fill="rgb(159,159,159)" stroke="rgb(159,159,159)" stroke-width="1" opacity="0.8588235294117647" d="M 598.5 75 Q 606.8 73.8 611.5 76 Q 620.3 79.3 625 86.5 L 628 93.5 L 629 100.5 L 627 109.5 L 619.5 120 Q 613 127 597.5 125 Q 588.3 122.2 583 115.5 Q 577.9 109.6 578 98.5 Q 580.2 97.3 579 92.5 L 585 82 L 592.5 77 L 598.5 75 Z M 600 81 L 593 84 Q 586 88 584 97 Q 583 106 587 111 L 594 117 L 604 120 L 614 117 Q 621 112 623 103 Q 623 93 619 89 Q 614 80 600 81 Z " /><path fill="rgb(159,159,159)" stroke="rgb(159,159,159)" stroke-width="1" opacity="0.8588235294117647" d="M 223.5 96 L 238.5 97 L 248.5 100 Q 260.9 105.6 269 115.5 Q 275.7 123.3 279 134.5 L 281 153.5 L 279 164.5 L 275 174.5 Q 269.4 184.8 260.5 192 L 243.5 201 L 233.5 203 L 221.5 203 L 208.5 200 L 198.5 195 L 186 183.5 Q 179.5 176 176 165.5 L 174 155.5 L 174 143.5 Q 178.1 119.1 194.5 107 L 208.5 99 L 223.5 96 Z M 223 103 L 211 106 L 198 114 Q 184 124 181 145 L 182 161 L 191 179 Q 201 192 222 196 L 239 195 L 257 186 L 268 173 L 272 164 L 274 154 Q 274 130 262 119 Q 255 111 245 106 L 233 103 L 223 103 Z " /><path fill="rgb(159,159,159)" stroke="rgb(159,159,159)" stroke-width="1" opacity="0.8588235294117647" d="M 227.5 116 L 239.5 118 Q 247.8 121.2 253 127.5 L 260 139.5 Q 262.3 146.2 261 156.5 Q 257.9 167.4 252 174 L 238.5 182 Q 231.4 184.4 220.5 183 Q 207.8 179.7 201 170.5 L 195 158.5 L 194 147.5 L 198 133.5 L 208.5 122 L 219.5 117 Q 225.7 118.8 227.5 116 Z M 226 122 L 218 124 L 210 129 Q 203 135 200 146 Q 199 155 202 161 L 208 170 L 218 176 L 222 177 Q 238 179 245 172 Q 252 166 255 156 Q 257 141 251 135 L 239 124 L 226 122 Z " /><path fill="rgb(159,159,159)" stroke="rgb(159,159,159)" stroke-width="1" opacity="0.8588235294117647" d="M 553.5 124 L 563.5 126 L 572 131 L 576 136.5 L 579 144.5 L 579 154.5 Q 576.9 163.9 570.5 169 L 564.5 173 L 552.5 175 L 543.5 173 L 534 165.5 Q 527.2 159.3 529 144.5 Q 530.9 135.9 536.5 131 L 544.5 126 L 553.5 124 Z M 552 130 L 544 133 Q 538 137 535 145 Q 533 156 538 161 Q 542 167 551 169 Q 560 170 565 166 Q 570 162 573 155 Q 575 143 570 139 Q 565 130 552 130 Z " /><path fill="rgb(159,159,159)" stroke="rgb(159,159,159)" stroke-width="1" opacity="0.8588235294117647" d="M 652.5 124 L 662.5 126 L 671 131 L 676 138.5 L 678 144.5 L 678 154.5 Q 676.1 163.1 670.5 168 L 660.5 174 L 651.5 175 L 640.5 172 L 633 165.5 Q 626 159 628 143.5 Q 630.5 135 636.5 130 L 643.5 126 L 652.5 124 Z M 651 130 L 643 133 Q 637 137 634 145 Q 633 154 636 160 Q 640 167 650 169 Q 659 170 664 166 Q 669 162 672 155 Q 673 144 669 139 L 660 131 L 651 130 Z " /><path fill="rgb(159,159,159)" stroke="rgb(159,159,159)" stroke-width="1" opacity="0.8588235294117647" d="M 357.5 131 L 368.5 132 L 377 139.5 L 380 149.5 L 377 159.5 L 370.5 166 Q 365.8 169.3 356.5 168 Q 348.6 165.9 345 159.5 Q 341 154.5 343 143.5 L 350.5 134 L 357.5 131 Z M 358 137 L 354 139 L 348 148 Q 347 154 350 157 L 358 162 Q 365 163 369 160 Q 373 157 374 152 Q 375 144 371 142 Q 368 136 358 137 Z " /><path fill="rgb(159,159,159)" stroke="rgb(159,159,159)" stroke-width="1" opacity="0.8588235294117647" d="M 464.5 131 L 472.5 131 L 482 136 L 486 143.5 L 487 151.5 L 485 158.5 L 480.5 164 Q 475.5 169.5 463.5 168 Q 456.1 165.4 452 159.5 Q 448.6 154.4 450 144.5 Q 451.8 137.3 457.5 134 L 464.5 131 Z M 465 137 L 459 140 L 455 150 L 458 158 L 465 162 Q 472 163 476 160 L 481 153 Q 482 146 479 143 L 472 137 L 465 137 Z " /><path fill="rgb(159,159,159)" stroke="rgb(159,159,159)" stroke-width="1" opacity="0.8588235294117647" d="M 598.5 174 Q 615.5 172.5 622 181.5 L 627 189.5 L 629 199.5 L 627 208.5 L 620.5 218 Q 614 225.5 598.5 224 Q 589.1 221.9 584 215.5 L 580 209.5 L 578 197.5 L 580 188.5 L 586.5 180 L 598.5 174 Z M 599 180 L 593 183 Q 586 187 584 196 Q 583 205 587 210 Q 591 215 599 218 Q 610 220 615 215 Q 621 211 623 202 L 623 197 L 620 189 Q 616 183 609 180 L 599 180 Z " /><path fill="rgb(159,159,159)" stroke="rgb(159,159,159)" stroke-width="1" opacity="0.8588235294117647" d="M 504.5 207 L 520.5 207 L 532.5 210 Q 544.2 214.8 552 223.5 Q 559.9 231.6 564 243.5 L 566 253.5 L 566 266.5 L 564 276.5 L 559 287.5 L 549.5 299 Q 541.3 306.8 529.5 311 L 520.5 313 L 504.5 313 Q 481.3 308.7 470 292.5 L 463 280.5 L 460 270.5 Q 461.5 263 459 259.5 L 460 258.5 L 461 245.5 L 466 233.5 L 480.5 217 L 492.5 210 L 504.5 207 Z M 505 214 Q 492 217 484 224 Q 474 232 469 244 L 466 260 L 469 277 L 476 289 Q 486 302 506 306 L 521 306 L 529 304 L 540 298 Q 555 288 559 267 L 558 249 L 551 234 Q 543 222 529 216 Q 519 212 505 214 Z " /><path fill="rgb(159,159,159)" stroke="rgb(159,159,159)" stroke-width="1" opacity="0.8588235294117647" d="M 302.5 208 L 332.5 208 L 336 210.5 L 337 212.5 L 337 248 L 373.5 248 L 376 250.5 L 376 284.5 L 374.5 286 L 372.5 287 L 337 287 L 337 322.5 L 334.5 326 L 300.5 326 L 298 323.5 L 298 287 L 261.5 287 L 258 282.5 L 258 252.5 L 259 249 L 261.5 248 L 298 248 L 298 211.5 L 299 209 L 302.5 208 Z M 304 214 L 304 254 L 264 254 L 264 281 L 304 281 L 304 321 L 331 321 L 331 281 L 370 281 L 370 254 L 331 254 L 331 214 L 304 214 Z " /><path fill="rgb(159,159,159)" stroke="rgb(159,159,159)" stroke-width="1" opacity="0.8588235294117647" d="M 506.5 227 Q 516.8 225.7 523.5 228 Q 532.3 231.3 538 237.5 Q 543.7 243.3 546 252.5 L 546 267.5 Q 542.8 281.3 532.5 288 Q 524.7 294.2 510.5 294 L 501.5 292 L 493.5 288 L 486 280.5 Q 477.6 271.9 480 252.5 Q 482.7 242.2 489.5 236 Q 496 229.5 506.5 227 Z M 507 233 L 497 238 L 490 245 L 486 254 Q 487 258 485 260 Q 486 273 493 280 Q 499 286 510 288 L 518 288 L 532 281 L 539 271 L 541 262 L 540 254 L 536 245 Q 531 238 523 234 Q 517 231 507 233 Z " /><path fill="rgb(0,0,0)" stroke="rgb(0,0,0)" stroke-width="1" opacity="0" d="M 0 0 L 270 0.5 L 251.5 2 L 224.5 9 L 172.5 33 L 163 41.5 L 158 49.5 L 153 62.5 L 144.5 71 L 137 77.5 L 122 101.5 L 103 146.5 L 76 222.5 L 65 261.5 L 57 295.5 L 57 300.5 L 54 311.5 L 50 341.5 L 49 342.5 L 49 348.5 L 48 349.5 L 48 357.5 L 46 367.5 L 46 379.5 L 45 380.5 L 45 426.5 L 46 427.5 L 46 436.5 L 47 437.5 L 48 448.5 L 57 476.5 Q 65.5 494.5 79.5 507 Q 91.4 516.6 107.5 522 L 122.5 525 L 140.5 525 L 155.5 516 L 176 495.5 Q 208 458 236 416.5 L 250.5 401 Q 264.5 388.5 286.5 384 L 294.5 384 L 295.5 383 L 345.5 383 Q 346.8 380.8 351.5 382 L 352.5 383 L 478.5 383 Q 480 380.5 485.5 382 L 486.5 383 L 536.5 383 L 537.5 384 L 549.5 385 L 567.5 392 L 587 406 L 638 474.5 Q 653.6 495.4 672.5 513 L 688.5 524 L 691.5 525 L 708.5 525 L 726.5 521 L 743.5 513 L 762 496.5 Q 777.1 478.1 783 450.5 L 785 433.5 L 786 432.5 L 786 420.5 L 787 419.5 L 787 390.5 L 786 389.5 L 786 374.5 L 785 373.5 L 784 354.5 L 783 353.5 L 783 346.5 L 782 345.5 L 778 314.5 L 769 271.5 L 756 224.5 L 737 168.5 L 709 100.5 L 697 80.5 L 686.5 70 L 680 64.5 L 672 46.5 L 661.5 35 L 609.5 10 L 584.5 3 L 562 0.5 L 832 0 L 832 527 L 0 527 L 0 0 Z " /><path fill="rgb(0,0,0)" stroke="rgb(0,0,0)" stroke-width="1" opacity="0" d="M 288.5 0 L 544 0.5 L 514.5 15 L 317.5 15 L 288.5 1 L 288.5 0 Z " /><path fill="rgb(0,0,0)" stroke="rgb(0,0,0)" stroke-width="1" opacity="0" d="M 268.5 8 L 285.5 8 L 313.5 22 L 517.5 22 L 545.5 8 L 563.5 8 L 564.5 9 L 572.5 9 L 573.5 10 L 584.5 11 L 605.5 17 L 654.5 40 L 662 46.5 L 666 52.5 L 670 64.5 L 675 72 L 677 72 Q 675.9 74.7 678.5 74 L 689 83.5 Q 698.5 96 705 111.5 L 722 152.5 L 738 195.5 L 754 246.5 L 767 299.5 L 767 304.5 L 774 339.5 L 776 363.5 L 777 364.5 L 777 373.5 L 778 374.5 L 778 389.5 L 779 390.5 L 779 420.5 L 778 421.5 L 778 431.5 L 776 438.5 L 776 444.5 L 768 470.5 Q 760.6 488.1 747.5 500 Q 737.6 508.1 724.5 513 L 714.5 516 L 697.5 517 L 696.5 518 Q 687.3 515.7 681.5 510 L 661 489.5 Q 627.6 449.9 598 406.5 L 586.5 395 Q 575.6 385.4 560.5 380 L 535.5 375 L 295.5 375 L 294.5 376 L 281.5 377 L 263.5 383 Q 248.1 390.6 237 402.5 L 187 469.5 L 154.5 506 Q 147 514.5 134.5 518 L 133.5 517 L 117.5 516 L 104.5 512 Q 86.7 505.3 76 491.5 L 64 471.5 L 56 447.5 L 54 428.5 L 53 427.5 L 53 379.5 L 54 378.5 L 56 350.5 L 57 349.5 L 59 329.5 L 64 306.5 L 64 301.5 L 82 230.5 L 98 182.5 L 115 138.5 L 135 94.5 L 144 81 L 146 81 Q 144.9 78.3 147.5 79 L 158 69.5 Q 164 62.5 166 51.5 L 175.5 41 L 196.5 30 L 228.5 16 L 251.5 10 L 267.5 9 L 268.5 8 Z M 412 47 L 405 49 L 395 55 L 389 65 L 387 72 Q 386 87 393 95 Q 399 102 410 105 Q 425 107 433 101 Q 442 95 445 84 Q 447 66 440 59 Q 435 51 426 48 L 412 47 Z M 599 75 L 593 77 L 585 82 L 579 93 Q 580 97 578 99 Q 578 110 583 116 Q 588 122 598 125 Q 613 127 620 120 L 627 110 L 629 101 L 628 94 L 625 87 Q 620 79 612 76 Q 607 74 599 75 Z M 224 96 L 209 99 L 195 107 Q 178 119 174 144 L 174 156 L 176 166 Q 180 176 186 184 L 199 195 L 209 200 L 222 203 L 234 203 L 244 201 L 261 192 Q 269 185 275 175 L 279 165 L 281 154 L 279 135 Q 276 123 269 116 Q 261 106 249 100 L 239 97 L 224 96 Z M 554 124 L 545 126 L 537 131 Q 531 136 529 145 Q 527 159 534 166 L 544 173 L 553 175 L 565 173 L 571 169 Q 577 164 579 155 L 579 145 L 576 137 L 572 131 L 564 126 L 554 124 Z M 653 124 L 644 126 L 637 130 Q 631 135 628 144 Q 626 159 633 166 L 641 172 L 652 175 L 661 174 L 671 168 Q 676 163 678 155 L 678 145 L 676 139 L 671 131 L 663 126 L 653 124 Z M 358 131 L 351 134 L 343 144 Q 341 154 345 160 Q 349 166 357 168 Q 366 169 371 166 L 377 160 L 380 150 L 377 140 L 369 132 L 358 131 Z M 465 131 L 458 134 Q 452 137 450 145 Q 449 154 452 160 Q 456 165 464 168 Q 476 170 481 164 L 485 159 L 487 152 L 486 144 L 482 136 L 473 131 L 465 131 Z M 599 174 L 587 180 L 580 189 L 578 198 L 580 210 L 584 216 Q 589 222 599 224 Q 614 225 621 218 L 627 209 L 629 200 L 627 190 L 622 182 Q 616 172 599 174 Z M 505 207 L 493 210 L 481 217 L 466 234 L 461 246 L 460 259 L 459 260 Q 462 263 460 271 L 463 281 L 470 293 Q 481 309 505 313 L 521 313 L 530 311 Q 541 307 550 299 L 559 288 L 564 277 L 566 267 L 566 254 L 564 244 Q 560 232 552 224 Q 544 215 533 210 L 521 207 L 505 207 Z M 303 208 L 299 209 L 298 212 L 298 248 L 262 248 L 259 249 L 258 253 L 258 283 L 262 287 L 298 287 L 298 324 L 301 326 L 335 326 L 337 323 L 337 287 L 373 287 L 375 286 L 376 285 L 376 251 L 374 248 L 337 248 L 337 213 L 336 211 L 333 208 L 303 208 Z " /><path fill="rgb(0,0,0)" stroke="rgb(0,0,0)" stroke-width="1" opacity="0" d="M 411.5 53 Q 419.7 51.8 424.5 54 Q 432 57 436 63.5 Q 440.2 68.8 440 78.5 Q 438 89.5 430.5 95 Q 424.8 99.8 414.5 100 Q 401.8 97.8 396 88.5 Q 391.5 83 393 71.5 Q 395.4 61.9 402.5 57 L 411.5 53 Z " /><path fill="rgb(0,0,0)" stroke="rgb(0,0,0)" stroke-width="1" opacity="0" d="M 599.5 81 Q 614 80 619 88.5 Q 623.5 93 623 102.5 Q 621 112.5 613.5 117 L 603.5 120 L 593.5 117 L 587 110.5 Q 583 106 584 96.5 Q 586.2 88.2 592.5 84 L 599.5 81 Z " /><path fill="rgb(0,0,0)" stroke="rgb(0,0,0)" stroke-width="1" opacity="0" d="M 222.5 103 L 232.5 103 L 244.5 106 Q 254.9 110.6 262 118.5 Q 274.3 129.7 274 153.5 L 272 163.5 L 268 172.5 L 256.5 186 L 238.5 195 L 221.5 196 Q 201.3 192.2 191 178.5 L 182 160.5 L 181 144.5 Q 184.4 124.4 197.5 114 L 210.5 106 L 222.5 103 Z M 228 116 Q 226 119 220 117 L 209 122 L 198 134 L 194 148 L 195 159 L 201 171 Q 208 180 221 183 Q 231 184 239 182 L 252 174 Q 258 167 261 157 Q 262 146 260 140 L 253 128 Q 248 121 240 118 L 228 116 Z " /><path fill="rgb(0,0,0)" stroke="rgb(0,0,0)" stroke-width="1" opacity="0" d="M 225.5 122 L 238.5 124 L 251 134.5 Q 256.8 141.2 255 155.5 Q 252.4 166.4 244.5 172 Q 237.7 179.2 221.5 177 L 217.5 176 L 208 170 L 202 160.5 Q 198.9 155.1 200 145.5 Q 202.5 135 209.5 129 L 217.5 124 L 225.5 122 Z " /><path fill="rgb(0,0,0)" stroke="rgb(0,0,0)" stroke-width="1" opacity="0" d="M 551.5 130 Q 565.4 129.6 570 138.5 Q 574.7 143.3 573 154.5 Q 570.4 161.9 564.5 166 Q 560 170 550.5 169 Q 542.2 166.9 538 160.5 Q 533.3 155.7 535 144.5 Q 537.6 137.1 543.5 133 L 551.5 130 Z " /><path fill="rgb(0,0,0)" stroke="rgb(0,0,0)" stroke-width="1" opacity="0" d="M 650.5 130 L 659.5 131 L 669 138.5 Q 673.4 143.7 672 154.5 Q 669.4 161.9 663.5 166 Q 659.1 170 649.5 169 Q 640.4 166.5 636 159.5 Q 632.6 154.4 634 144.5 Q 636.6 137.1 642.5 133 L 650.5 130 Z " /><path fill="rgb(0,0,0)" stroke="rgb(0,0,0)" stroke-width="1" opacity="0" d="M 357.5 137 Q 367.9 135.6 371 141.5 Q 374.7 144.3 374 151.5 Q 372.8 157.3 368.5 160 Q 365.2 163.2 357.5 162 L 350 156.5 Q 347.4 153.6 348 147.5 L 353.5 139 L 357.5 137 Z " /><path fill="rgb(0,0,0)" stroke="rgb(0,0,0)" stroke-width="1" opacity="0" d="M 464.5 137 L 471.5 137 L 479 142.5 Q 481.7 145.8 481 152.5 L 475.5 160 Q 472.2 163.2 464.5 162 L 458 157.5 L 455 149.5 L 459 140 L 464.5 137 Z " /><path fill="rgb(0,0,0)" stroke="rgb(0,0,0)" stroke-width="1" opacity="0" d="M 598.5 180 L 608.5 180 Q 615.9 182.6 620 188.5 L 623 196.5 L 623 201.5 Q 621.3 210.8 614.5 215 Q 609.7 219.7 598.5 218 Q 591.1 215.4 587 209.5 Q 583 205 584 195.5 Q 586.2 187.2 592.5 183 L 598.5 180 Z " /><path fill="rgb(0,0,0)" stroke="rgb(0,0,0)" stroke-width="1" opacity="0" d="M 304 214 L 331 214 L 331 254 L 370 254 L 370 281 L 331 281 L 331 321 L 304 321 L 304 281 L 264 281 L 264 254 L 304 254 L 304 214 Z " /><path fill="rgb(0,0,0)" stroke="rgb(0,0,0)" stroke-width="1" opacity="0" d="M 504.5 214 Q 519.4 212.1 528.5 216 Q 542.7 221.8 551 233.5 L 558 248.5 L 559 266.5 Q 554.9 287.9 539.5 298 L 528.5 304 L 520.5 306 L 505.5 306 Q 486.1 301.9 476 288.5 L 469 276.5 L 466 259.5 L 469 243.5 Q 474 231.5 483.5 224 Q 491.7 216.7 504.5 214 Z M 507 227 Q 496 230 490 236 Q 483 242 480 253 Q 478 272 486 281 L 494 288 L 502 292 L 511 294 Q 525 294 533 288 Q 543 281 546 268 L 546 253 Q 544 243 538 238 Q 532 231 524 228 Q 517 226 507 227 Z " /><path fill="rgb(0,0,0)" stroke="rgb(0,0,0)" stroke-width="1" opacity="0" d="M 506.5 233 Q 516.6 231.4 522.5 234 Q 530.9 237.6 536 244.5 L 540 253.5 L 541 261.5 L 539 270.5 L 531.5 281 L 517.5 288 L 509.5 288 Q 499 286 493 279.5 Q 485.6 272.9 485 259.5 Q 487.2 258.3 486 253.5 L 490 244.5 L 496.5 238 L 506.5 233 Z " /></svg>